<svg width="9629" height="5570" viewBox="0 0 9629 5570" fill="none" xmlns="http://www.w3.org/2000/svg">
<path d="M4366.93 1006.26C4496.36 1006.26 4602.74 1032.78 4686.09 1085.81C4769.43 1137.87 4812.08 1215.46 4814.04 1318.59V1336.27H4509.59V1330.37C4509.59 1300.91 4498.81 1276.35 4477.24 1256.71C4455.67 1237.07 4422.82 1227.25 4378.7 1227.25C4335.56 1227.25 4302.22 1233.63 4278.69 1246.4C4256.13 1259.17 4244.86 1274.88 4244.86 1293.54C4244.86 1320.06 4260.55 1339.7 4291.92 1352.47C4323.3 1365.24 4373.8 1378.5 4443.41 1392.25C4524.79 1408.95 4591.47 1426.62 4643.43 1445.29C4696.38 1462.96 4742.46 1492.43 4781.68 1533.68C4820.9 1574.93 4841.01 1630.91 4841.99 1701.63C4841.99 1821.45 4801.29 1910.34 4719.91 1968.29C4639.51 2026.23 4531.66 2055.21 4396.35 2055.21C4238.49 2055.21 4115.43 2028.69 4027.19 1975.65C3939.92 1922.62 3896.29 1828.82 3896.29 1694.26H4203.68C4203.68 1745.34 4216.91 1779.71 4243.39 1797.39C4269.86 1814.09 4311.04 1822.44 4366.93 1822.44C4408.11 1822.44 4441.94 1818.02 4468.41 1809.18C4495.87 1800.34 4509.59 1782.17 4509.59 1754.67C4509.59 1730.11 4494.4 1711.94 4464 1700.16C4434.59 1687.39 4386.05 1674.13 4318.4 1660.38C4236.03 1642.7 4167.89 1624.53 4113.96 1605.87C4060.03 1586.23 4012.97 1554.31 3972.77 1510.11C3932.57 1465.91 3912.47 1406 3912.47 1330.37C3912.47 1219.39 3955.12 1137.87 4040.42 1085.81C4126.71 1032.78 4235.54 1006.26 4366.93 1006.26Z" fill="white"/>
<path d="M5018.01 2037.53V1023.94H5343.04V2037.53H5018.01Z" fill="white"/>
<path d="M5849.97 2037.53L5491.11 1023.94H5838.2L6041.17 1701.63H6047.05L6251.49 1023.94H6583.88L6226.48 2037.53H5849.97Z" fill="white"/>
<path d="M7314.37 2037.53L7271.72 1894.62H6917.27L6874.62 2037.53H6542.23L6911.39 1023.94H7289.37L7658.53 2037.53H7314.37ZM6984.92 1667.74H7204.07L7098.17 1306.8H7092.29L6984.92 1667.74Z" fill="white"/>
<path d="M8741.48 1334.79C8741.48 1396.67 8724.81 1452.65 8691.47 1502.74C8658.13 1552.83 8609.6 1589.66 8545.87 1613.24L8770.89 2037.53H8406.14L8226.71 1667.74H8106.11V2037.53H7781.07V1023.94H8400.26C8472.82 1023.94 8534.59 1038.18 8585.58 1066.66C8637.54 1094.16 8676.27 1131.98 8701.77 1180.1C8728.24 1227.25 8741.48 1278.81 8741.48 1334.79ZM8410.56 1348.05C8410.56 1321.53 8401.73 1299.43 8384.08 1281.76C8366.43 1264.08 8344.86 1255.24 8319.37 1255.24H8106.11V1442.34H8319.37C8344.86 1442.34 8366.43 1433.5 8384.08 1415.82C8401.73 1397.16 8410.56 1374.57 8410.56 1348.05Z" fill="white"/>
<path d="M4811.1 3291.79V2926.43C4811.1 2881.25 4812.57 2835.09 4815.51 2787.94C4819.43 2739.82 4823.36 2699.55 4827.28 2667.14C4831.2 2634.73 4833.65 2614.1 4834.63 2605.26H4828.75L4641.96 3291.79H4387.52L4199.27 2606.74H4193.38C4194.36 2615.58 4196.81 2636.2 4200.74 2668.61C4205.64 2700.04 4210.05 2739.82 4213.97 2787.94C4217.89 2835.09 4219.86 2881.25 4219.86 2926.43V3291.79H3921.29V2278.2H4380.17L4533.13 2863.08H4539.01L4690.5 2278.2H5133.2V3291.79H4811.1Z" fill="white"/>
<path d="M6338.24 2883.71C6338.24 3022.19 6294.61 3127.77 6207.34 3200.45C6120.08 3273.13 5996.04 3309.47 5835.24 3309.47C5674.44 3309.47 5549.91 3273.13 5461.67 3200.45C5374.4 3127.77 5330.77 3022.19 5330.77 2883.71V2278.2H5655.81V2879.29C5655.81 2936.25 5671 2981.92 5701.4 3016.3C5731.8 3049.69 5775.92 3066.39 5833.77 3066.39C5891.62 3066.39 5935.74 3049.2 5966.14 3014.82C5997.51 2980.45 6013.2 2935.27 6013.2 2879.29V2278.2H6338.24V2883.71Z" fill="white"/>
<path d="M6980.97 2260.53C7110.4 2260.53 7216.78 2287.04 7300.12 2340.08C7383.47 2392.14 7426.12 2469.73 7428.08 2572.85V2590.53H7123.63V2584.64C7123.63 2555.17 7112.85 2530.62 7091.28 2510.98C7069.7 2491.33 7036.86 2481.51 6992.74 2481.51C6949.59 2481.51 6916.26 2487.9 6892.72 2500.66C6870.17 2513.43 6858.9 2529.15 6858.9 2547.81C6858.9 2574.33 6874.58 2593.97 6905.96 2606.74C6937.34 2619.51 6987.83 2632.76 7057.45 2646.51C7138.83 2663.21 7205.5 2680.89 7257.47 2699.55C7310.42 2717.23 7356.5 2746.69 7395.72 2787.94C7434.94 2829.19 7455.04 2885.18 7456.02 2955.89C7456.02 3075.72 7415.33 3164.6 7333.95 3222.55C7253.55 3280.5 7145.69 3309.47 7010.38 3309.47C6852.52 3309.47 6729.47 3282.95 6641.22 3229.92C6553.96 3176.88 6510.33 3083.08 6510.33 2948.53H6817.72C6817.72 2999.6 6830.95 3033.98 6857.43 3051.65C6883.9 3068.35 6925.08 3076.7 6980.97 3076.7C7022.15 3076.7 7055.98 3072.28 7082.45 3063.44C7109.91 3054.6 7123.63 3036.43 7123.63 3008.93C7123.63 2984.38 7108.43 2966.21 7078.04 2954.42C7048.62 2941.65 7000.09 2928.39 6932.43 2914.64C6850.07 2896.96 6781.93 2878.79 6728 2860.13C6674.07 2840.49 6627.01 2808.57 6586.81 2764.37C6546.61 2720.17 6526.51 2660.27 6526.51 2584.64C6526.51 2473.65 6569.16 2392.14 6654.46 2340.08C6740.75 2287.04 6849.58 2260.53 6980.97 2260.53Z" fill="white"/>
<path d="M7632.04 3291.79V2278.2H7957.08V3291.79H7632.04Z" fill="white"/>
<path d="M8671.39 2260.53C8821.4 2260.53 8940.04 2298.34 9027.31 2373.97C9114.57 2448.61 9158.2 2555.66 9158.2 2695.13H8847.88C8847.88 2636.2 8832.19 2589.55 8800.81 2555.17C8770.42 2520.8 8726.78 2503.61 8669.91 2503.61C8604.22 2503.61 8555.69 2524.24 8524.31 2565.49C8493.91 2606.74 8478.72 2664.19 8478.72 2737.85V2832.14C8478.72 2904.82 8493.91 2962.28 8524.31 3004.51C8555.69 3045.76 8603.24 3066.39 8666.97 3066.39C8729.73 3066.39 8777.28 3050.18 8809.64 3017.77C8841.99 2985.36 8858.17 2939.69 8858.17 2880.76H9158.2C9158.2 3019.24 9115.55 3125.32 9030.25 3198.98C8945.93 3272.64 8826.3 3309.47 8671.39 3309.47C8498.82 3309.47 8367.92 3265.27 8278.69 3176.88C8190.45 3088.49 8146.33 2957.86 8146.33 2785C8146.33 2612.14 8190.45 2481.51 8278.69 2393.12C8367.92 2304.72 8498.82 2260.53 8671.39 2260.53Z" fill="white"/>
<path d="M4447.82 3528.34C4544.89 3528.34 4632.16 3543.07 4709.62 3572.54C4787.08 3602 4848.36 3645.71 4893.46 3703.66C4939.55 3760.62 4962.59 3830.36 4962.59 3912.86H4652.26C4652.26 3870.63 4633.63 3836.74 4596.37 3811.2C4559.11 3784.69 4514.01 3771.43 4461.06 3771.43C4384.58 3771.43 4326.73 3792.05 4287.51 3833.3C4248.29 3873.57 4228.68 3931.03 4228.68 4005.67V4099.96C4228.68 4174.6 4248.29 4232.55 4287.51 4273.8C4326.73 4314.07 4384.58 4334.2 4461.06 4334.2C4514.01 4334.2 4559.11 4321.93 4596.37 4297.37C4633.63 4271.84 4652.26 4239.43 4652.26 4200.14H4422.82V3993.89H4962.59V4559.61H4794.92L4762.56 4459.43C4670.4 4538 4549.8 4577.29 4400.76 4577.29C4233.09 4577.29 4107.1 4533.58 4022.77 4446.17C3938.45 4357.78 3896.29 4226.66 3896.29 4052.82C3896.29 3880.94 3943.84 3750.8 4038.95 3662.41C4135.04 3573.03 4271.33 3528.34 4447.82 3528.34Z" fill="white"/>
<path d="M6124.5 3856.87C6124.5 3918.75 6107.83 3974.73 6074.49 4024.82C6041.15 4074.91 5992.62 4111.75 5928.89 4135.32L6153.91 4559.61H5789.16L5609.73 4189.83H5489.13V4559.61H5164.09V3546.02H5783.28C5855.84 3546.02 5917.61 3560.26 5968.6 3588.74C6020.56 3616.24 6059.29 3654.06 6084.79 3702.18C6111.26 3749.33 6124.5 3800.89 6124.5 3856.87ZM5793.58 3870.13C5793.58 3843.62 5784.75 3821.52 5767.1 3803.84C5749.45 3786.16 5727.88 3777.32 5702.39 3777.32H5489.13V3964.42H5702.39C5727.88 3964.42 5749.45 3955.58 5767.1 3937.9C5784.75 3919.24 5793.58 3896.65 5793.58 3870.13Z" fill="white"/>
<path d="M6787.39 3528.34C6961.92 3528.34 7096.74 3573.03 7191.85 3662.41C7286.96 3751.78 7334.51 3881.92 7334.51 4052.82C7334.51 4223.71 7286.96 4353.85 7191.85 4443.23C7096.74 4532.6 6961.92 4577.29 6787.39 4577.29C6612.86 4577.29 6478.04 4533.09 6382.94 4444.7C6288.81 4355.32 6241.74 4224.69 6241.74 4052.82C6241.74 3880.94 6288.81 3750.8 6382.94 3662.41C6478.04 3573.03 6612.86 3528.34 6787.39 3528.34ZM6787.39 3771.43C6717.78 3771.43 6664.83 3792.54 6628.55 3834.78C6592.27 3877.01 6574.13 3933.97 6574.13 4005.67V4099.96C6574.13 4171.66 6592.27 4228.62 6628.55 4270.86C6664.83 4313.09 6717.78 4334.2 6787.39 4334.2C6857.01 4334.2 6909.96 4313.09 6946.23 4270.86C6983.49 4228.62 7002.12 4171.66 7002.12 4099.96V4005.67C7002.12 3933.97 6983.49 3877.01 6946.23 3834.78C6909.96 3792.54 6857.01 3771.43 6787.39 3771.43Z" fill="white"/>
<path d="M8517.01 4151.52C8517.01 4290.01 8473.38 4395.59 8386.12 4468.27C8298.85 4540.95 8174.82 4577.29 8014.01 4577.29C7853.21 4577.29 7728.69 4540.95 7640.44 4468.27C7553.18 4395.59 7509.55 4290.01 7509.55 4151.52V3546.02H7834.58V4147.1C7834.58 4204.07 7849.78 4249.74 7880.18 4284.11C7910.57 4317.51 7954.69 4334.2 8012.54 4334.2C8070.39 4334.2 8114.52 4317.02 8144.91 4282.64C8176.29 4248.27 8191.98 4203.09 8191.98 4147.1V3546.02H8517.01V4151.52Z" fill="white"/>
<path d="M9302.41 3546.02C9365.16 3546.02 9421.05 3560.75 9470.07 3590.22C9519.1 3618.7 9557.34 3658.48 9584.79 3709.55C9612.25 3759.64 9625.97 3816.11 9625.97 3878.97V3898.12C9625.97 3960.98 9612.25 4017.95 9584.79 4069.02C9557.34 4120.09 9519.1 4160.36 9470.07 4189.83C9421.05 4218.31 9365.16 4232.55 9302.41 4232.55H9059.73V4559.61H8734.7V3546.02H9302.41ZM9059.73 3995.36H9193.57C9227.89 3995.36 9253.38 3986.52 9270.05 3968.84C9287.7 3951.16 9296.52 3927.1 9296.52 3896.65V3884.87C9296.52 3853.44 9287.7 3829.37 9270.05 3812.68C9253.38 3795 9227.89 3786.16 9193.57 3786.16H9059.73V3995.36Z" fill="white"/>
<path d="M1622.38 1572.19C1619.56 1504.86 1614.92 1437.61 1607.6 1370.49C1585.44 1438.28 1578.46 1513.57 1574.99 1587.13C1590.76 1582.08 1606.55 1577.11 1622.38 1572.19Z" fill="white"/>
<path d="M1622.52 2033.01C1625.01 1910.7 1627.5 1788.4 1625.19 1666.34C1607.26 1671.97 1589.31 1677.7 1571.43 1683.53C1570.87 1698.57 1570.24 1713.35 1569.4 1727.76C1559.91 1892.94 1554.01 2058.32 1551.71 2223.76C1549.06 2412.14 1551.07 2600.59 1557.73 2788.87C1592.83 2811.72 1627.82 2834.7 1662.68 2857.91C1660.78 2854.48 1659.38 2850.65 1658.65 2846.44C1611.46 2576.98 1616.99 2304.98 1622.52 2033.01Z" fill="white"/>
<path d="M824.589 2303.98C892.281 2352.97 961.062 2400.43 1030.42 2447C1140.24 2520.72 1251.61 2592.07 1362.97 2663.43C1397 2685.23 1431.02 2707.03 1465 2728.89C1457.45 2477.89 1458.17 2226.63 1467.12 1975.68C1470.22 1888.77 1473.62 1801.64 1478.53 1714.62C1337.54 1763.14 1198.46 1817.24 1061.77 1877.11C985.852 1910.36 910.647 1945.28 836.222 1981.79C796.55 2001.27 757.006 2021.08 717.879 2041.64C711.634 2044.92 705.492 2047.93 699.561 2050.83C664.38 2068.03 636.618 2081.6 638.917 2127.34C641.848 2185.15 720.504 2235.89 782.083 2275.61C797.904 2285.81 812.596 2295.29 824.589 2303.98Z" fill="white"/>
<path d="M1686.08 4140.74C1696.14 4211.36 1708.54 4298.35 1795.67 4302.29C1798.3 4302.4 1800.95 4302.48 1803.62 4302.48C1857.3 4302.48 1917.53 4279.05 1967.26 4259.7C1970.04 4258.62 1972.78 4257.55 1975.48 4256.51C2096.93 4209.43 2213.22 4135.82 2302.07 4040.05C2401.78 3932.58 2465.02 3789.01 2409.62 3644.25C2365.63 3529.3 2270.41 3440.57 2180.59 3360.52C1988.42 3189.22 1777.05 3041.31 1562.2 2900.1C1566.93 3005.38 1573.14 3110.58 1580.78 3215.7C1602.76 3517.99 1635.97 3819.81 1682.92 4119.27C1684 4126.17 1685.03 4133.36 1686.08 4140.74Z" fill="white"/>
<path fill-rule="evenodd" clip-rule="evenodd" d="M626.157 1029.98C280.34 1029.98 0 1310.32 0 1656.13V3917.26C0 4263.07 280.34 4543.41 626.157 4543.41H2887.28C3233.1 4543.41 3513.44 4263.07 3513.44 3917.26V1656.13C3513.44 1310.32 3233.1 1029.98 2887.28 1029.98H626.157ZM1493.76 1507.64C1504.6 1392.38 1528.11 1287.45 1601.43 1195.46C1608.8 1186.22 1620.05 1182.08 1631.67 1182.08C1652.21 1182.08 1673.88 1195 1677.27 1215.47C1695.44 1325.23 1705.09 1435.41 1709.79 1545.82C1811.21 1516.08 1913.43 1489.04 2016.35 1464.65C2073.23 1451.18 2097.26 1538.69 2040.47 1552.16C1930.4 1578.23 1821.06 1607.34 1712.66 1639.57C1715.07 1762.72 1712.57 1886.11 1710.06 2009.47C1705.13 2252.18 1700.2 2494.83 1732.72 2735.5C1850.05 2609.83 1967.38 2484.17 2084.71 2358.5C2322.21 2104.14 2559.7 1849.77 2797.19 1595.4C2823.25 1567.51 2877.11 1588.31 2874.64 1627.49C2834.61 2265.34 2871.34 2905.18 2985.91 3534C2996.33 3591.18 2908.85 3615.48 2898.4 3558.11C2789.71 2961.46 2748.59 2355.19 2777.19 1749.72L2659.8 1875.44C2351.37 2205.77 2042.92 2536.13 1734.49 2866.47C1724.24 2877.45 1708.25 2881.16 1693.53 2878.52C1704.59 2885.93 1715.62 2893.37 1726.64 2900.83C1946.66 3049.91 2177.11 3208.84 2357.79 3405.49C2520.1 3582.16 2578.38 3805.16 2437.17 4015.05C2309.28 4205.15 2058.36 4367.77 1827.61 4390.62C1605.65 4412.59 1583.41 4157.18 1567.37 3973.04C1564.6 3941.19 1562.01 3911.47 1558.6 3885.69C1516.86 3569.33 1488.26 3251.3 1472.96 2932.59C1471.46 2901.48 1470.1 2870.38 1468.86 2839.27C1418.05 2806.39 1367.08 2773.74 1316.12 2741.09C1169.91 2647.43 1023.71 2553.76 881.047 2454.73C859.193 2439.56 836.702 2424.41 813.978 2409.1C731.406 2353.48 645.776 2295.79 576.596 2227.75C522.751 2174.82 506.871 2106.51 556.887 2044.22C613.267 1974.03 716.315 1930.55 807.014 1892.29C832.832 1881.4 857.649 1870.93 880.104 1860.38C993.674 1807.04 1109.04 1757.41 1225.79 1711.44C1311.36 1677.74 1397.72 1646.22 1484.78 1616.78C1487.39 1580.36 1490.35 1543.95 1493.76 1507.64Z" fill="white"/>
</svg>
