<svg width="9952" height="2443" viewBox="0 0 9952 2443" fill="none" xmlns="http://www.w3.org/2000/svg">
<path d="M9782.77 1906.09V2291H9616.63V1906.09H9446.72V1773.78H9951.92V1906.09H9782.77Z" fill="white"/>
<path d="M9228.7 2291L9011.44 2039.91V2291H8858.83V1773.78H9003.92L9221.18 2028.63V1773.78H9373.79V2291H9228.7Z" fill="white"/>
<path d="M8316.29 1773.78H8763.6V1897.82H8482.44V1969.24H8723V2088.02H8482.44V2166.96H8768.86V2291H8316.29V1773.78Z" fill="white"/>
<path d="M8050.66 2291V2104.56C8050.66 2081.51 8051.41 2057.95 8052.92 2033.89C8054.92 2009.34 8056.93 1988.79 8058.93 1972.25C8060.94 1955.71 8062.19 1945.18 8062.69 1940.67H8059.68L7964.21 2291H7834.15L7737.92 1941.43H7734.92C7735.42 1945.94 7736.67 1956.46 7738.67 1973C7741.18 1989.04 7743.44 2009.34 7745.44 2033.89C7747.45 2057.95 7748.45 2081.51 7748.45 2104.56V2291H7595.84V1773.78H7830.39L7908.58 2072.23H7911.58L7989.02 1773.78H8215.3V2291H8050.66Z" fill="white"/>
<path d="M7350 2291L7132.74 2039.91V2291H6980.13V1773.78H7125.22L7342.49 2028.63V1773.78H7495.1V2291H7350Z" fill="white"/>
<path d="M6695.46 2291V1773.78H6861.6V2291H6695.46Z" fill="white"/>
<path d="M6449.39 2291L6427.59 2218.08H6246.41L6224.61 2291H6054.71L6243.4 1773.78H6436.61L6625.3 2291H6449.39ZM6280.99 2102.3H6393L6338.88 1918.12H6335.87L6280.99 2102.3Z" fill="white"/>
<path d="M5909.37 1906.09V2291H5743.23V1906.09H5573.33V1773.78H6078.52V1906.09H5909.37Z" fill="white"/>
<path d="M5524.06 1932.4C5524.06 1963.98 5515.54 1992.55 5498.5 2018.11C5481.46 2043.67 5456.66 2062.46 5424.08 2074.49L5539.1 2291H5352.66L5260.94 2102.3H5199.3V2291H5033.16V1773.78H5349.65C5386.74 1773.78 5418.31 1781.05 5444.38 1795.58C5470.94 1809.61 5490.74 1828.91 5503.77 1853.47C5517.3 1877.52 5524.06 1903.84 5524.06 1932.4ZM5354.92 1939.17C5354.92 1925.64 5350.4 1914.36 5341.38 1905.34C5332.36 1896.32 5321.34 1891.81 5308.31 1891.81H5199.3V1987.28H5308.31C5321.34 1987.28 5332.36 1982.77 5341.38 1973.75C5350.4 1964.23 5354.92 1952.7 5354.92 1939.17Z" fill="white"/>
<path d="M4490.62 1773.78H4937.92V1897.82H4656.76V1969.24H4897.32V2088.02H4656.76V2166.96H4943.18V2291H4490.62V1773.78Z" fill="white"/>
<path d="M4245.78 1906.09V2291H4079.64V1906.09H3909.74V1773.78H4414.93V1906.09H4245.78Z" fill="white"/>
<path d="M3691.72 2291L3474.45 2039.91V2291H3321.84V1773.78H3466.94L3684.2 2028.63V1773.78H3836.81V2291H3691.72Z" fill="white"/>
<path d="M2779.3 1773.78H3226.61V1897.82H2945.45V1969.24H3186.01V2088.02H2945.45V2166.96H3231.87V2291H2779.3V1773.78Z" fill="white"/>
<path d="M5196.78 948.379C5273.46 948.379 5334.1 967.675 5378.71 1006.27C5423.31 1044.36 5445.62 1098.98 5445.62 1170.15H5286.99C5286.99 1140.08 5278.97 1116.28 5262.93 1098.73C5247.4 1081.19 5225.1 1072.42 5196.03 1072.42C5162.45 1072.42 5137.64 1082.95 5121.6 1104C5106.06 1125.05 5098.3 1154.36 5098.3 1191.95V1240.07C5098.3 1277.15 5106.06 1306.47 5121.6 1328.02C5137.64 1349.07 5161.95 1359.6 5194.52 1359.6C5226.6 1359.6 5250.91 1351.33 5267.45 1334.79C5283.98 1318.25 5292.25 1294.95 5292.25 1264.88H5445.62C5445.62 1335.54 5423.81 1389.67 5380.21 1427.26C5337.11 1464.85 5275.97 1483.64 5196.78 1483.64C5108.57 1483.64 5041.66 1461.09 4996.06 1415.98C4950.95 1370.88 4928.4 1304.22 4928.4 1216.01C4928.4 1127.8 4950.95 1061.15 4996.06 1016.04C5041.66 970.932 5108.57 948.379 5196.78 948.379Z" fill="white"/>
<path d="M4665.52 1474.62V957.401H4831.66V1474.62H4665.52Z" fill="white"/>
<path d="M4332.73 948.379C4398.88 948.379 4453.26 961.911 4495.86 988.975C4538.46 1015.54 4560.26 1055.13 4561.27 1107.76V1116.78H4405.65V1113.77C4405.65 1098.73 4400.14 1086.2 4389.11 1076.18C4378.08 1066.16 4361.3 1061.15 4338.74 1061.15C4316.69 1061.15 4299.65 1064.4 4287.62 1070.92C4276.09 1077.43 4270.33 1085.45 4270.33 1094.97C4270.33 1108.51 4278.35 1118.53 4294.39 1125.05C4310.43 1131.56 4336.24 1138.33 4371.82 1145.34C4413.42 1153.86 4447.5 1162.89 4474.06 1172.41C4501.12 1181.43 4524.68 1196.46 4544.73 1217.51C4564.78 1238.56 4575.05 1267.13 4575.55 1303.22C4575.55 1364.36 4554.75 1409.72 4513.15 1439.29C4472.06 1468.86 4416.93 1483.64 4347.76 1483.64C4267.07 1483.64 4204.17 1470.11 4159.07 1443.05C4114.46 1415.98 4092.16 1368.12 4092.16 1299.46H4249.28C4249.28 1325.52 4256.05 1343.06 4269.58 1352.08C4283.11 1360.6 4304.16 1364.86 4332.73 1364.86C4353.78 1364.86 4371.07 1362.61 4384.6 1358.1C4398.63 1353.58 4405.65 1344.31 4405.65 1330.28C4405.65 1317.75 4397.88 1308.48 4382.34 1302.46C4367.31 1295.95 4342.5 1289.18 4307.92 1282.17C4265.82 1273.15 4230.99 1263.87 4203.42 1254.35C4175.86 1244.33 4151.8 1228.04 4131.25 1205.49C4110.7 1182.93 4100.43 1152.36 4100.43 1113.77C4100.43 1057.14 4122.23 1015.54 4165.83 988.975C4209.94 961.911 4265.57 948.379 4332.73 948.379Z" fill="white"/>
<path d="M4004.2 1266.38C4004.2 1337.05 3981.89 1390.92 3937.29 1428.01C3892.68 1465.1 3829.28 1483.64 3747.09 1483.64C3664.89 1483.64 3601.24 1465.1 3556.14 1428.01C3511.53 1390.92 3489.23 1337.05 3489.23 1266.38V957.401H3655.37V1264.12C3655.37 1293.19 3663.14 1316.5 3678.68 1334.04C3694.21 1351.08 3716.77 1359.6 3746.34 1359.6C3775.91 1359.6 3798.46 1350.83 3814 1333.29C3830.03 1315.75 3838.05 1292.69 3838.05 1264.12V957.401H4004.2V1266.38Z" fill="white"/>
<path d="M3223.6 1474.62V1288.18C3223.6 1265.13 3224.35 1241.57 3225.86 1217.51C3227.86 1192.96 3229.87 1172.41 3231.87 1155.87C3233.88 1139.33 3235.13 1128.81 3235.63 1124.29H3232.62L3137.15 1474.62H3007.09L2910.86 1125.05H2907.86C2908.36 1129.56 2909.61 1140.08 2911.62 1156.62C2914.12 1172.66 2916.38 1192.96 2918.38 1217.51C2920.39 1241.57 2921.39 1265.13 2921.39 1288.18V1474.62H2768.78V957.401H3003.33L3081.52 1255.85H3084.52L3161.96 957.401H3388.24V1474.62H3223.6Z" fill="white"/>
<path d="M5232.6 299.646C5232.6 331.221 5224.08 359.788 5207.04 385.348C5190 410.909 5165.2 429.703 5132.62 441.732L5247.64 658.242H5061.2L4969.48 469.547H4907.84V658.242H4741.7V141.022H5058.19C5095.28 141.022 5126.85 148.289 5152.92 162.824C5179.48 176.857 5199.28 196.152 5212.31 220.71C5225.84 244.767 5232.6 271.079 5232.6 299.646ZM5063.46 306.412C5063.46 292.88 5058.94 281.604 5049.92 272.582C5040.9 263.561 5029.88 259.051 5016.85 259.051H4907.84V354.526H5016.85C5029.88 354.526 5040.9 350.015 5049.92 340.994C5058.94 331.471 5063.46 319.944 5063.46 306.412Z" fill="white"/>
<path d="M4503.15 658.242L4481.35 585.32H4300.17L4278.37 658.242H4108.47L4297.16 141.022H4490.37L4679.06 658.242H4503.15ZM4334.75 469.547H4446.76L4392.64 285.363H4389.63L4334.75 469.547Z" fill="white"/>
<path d="M3754.62 658.242L3571.19 141.022H3748.6L3852.35 486.838H3855.36L3959.85 141.022H4129.75L3947.07 658.242H3754.62Z" fill="white"/>
<path d="M3329.36 658.242V141.022H3495.51V658.242H3329.36Z" fill="white"/>
<path d="M2996.57 132C3062.72 132 3117.1 145.532 3159.7 172.596C3202.3 199.158 3224.1 238.752 3225.11 291.376V300.397H3069.49V297.39C3069.49 282.355 3063.98 269.825 3052.95 259.801C3041.92 249.778 3025.13 244.766 3002.58 244.766C2980.53 244.766 2963.49 248.024 2951.46 254.539C2939.93 261.054 2934.17 269.073 2934.17 278.596C2934.17 292.128 2942.19 302.151 2958.23 308.667C2974.26 315.182 3000.08 321.948 3035.66 328.965C3077.26 337.485 3111.34 346.506 3137.9 356.029C3164.96 365.05 3188.52 380.085 3208.57 401.135C3228.61 422.185 3238.89 450.752 3239.39 486.837C3239.39 547.981 3218.59 593.338 3176.99 622.908C3135.9 652.478 3080.77 667.263 3011.6 667.263C2930.91 667.263 2868.01 653.731 2822.91 626.667C2778.3 599.603 2756 551.74 2756 483.078H2913.12C2913.12 509.14 2919.89 526.681 2933.42 535.702C2946.95 544.222 2968 548.483 2996.57 548.483C3017.62 548.483 3034.91 546.227 3048.44 541.717C3062.47 537.206 3069.49 527.934 3069.49 513.901C3069.49 501.371 3061.72 492.099 3046.18 486.085C3031.15 479.57 3006.34 472.804 2971.76 465.787C2929.66 456.766 2894.83 447.494 2867.26 437.972C2839.7 427.948 2815.64 411.66 2795.09 389.107C2774.54 366.553 2764.27 335.981 2764.27 297.39C2764.27 240.757 2786.07 199.158 2829.67 172.596C2873.78 145.532 2929.41 132 2996.57 132Z" fill="white"/>
<rect width="2488" height="2442.74" rx="443" fill="white"/>
<path d="M1152.58 250.069C1106.72 306.56 1092.01 370.997 1085.24 441.776C1083.1 464.075 1081.25 486.431 1079.62 508.798C1025.17 526.874 971.148 546.232 917.629 566.927C844.608 595.156 772.451 625.636 701.417 658.389C638.034 687.61 544.559 715.906 499.258 771.282C467.975 809.53 477.907 851.477 511.585 883.986C566.761 937.267 638.669 980.206 702.007 1023.37C822.338 1105.38 946.698 1181.4 1069.66 1259.51C1070.43 1278.61 1071.29 1297.71 1072.23 1316.81C1081.8 1512.53 1099.69 1707.82 1125.79 1902.09C1140.23 2009.46 1131.21 2227.99 1294.05 2212.16C1438.37 2198.13 1595.31 2098.27 1675.3 1981.53C1763.62 1852.65 1727.17 1715.7 1625.65 1607.21C1512.64 1486.45 1368.51 1388.86 1230.89 1297.31C1224 1292.73 1217.1 1288.16 1210.19 1283.61C1219.39 1285.23 1229.39 1282.96 1235.81 1276.21C1453.19 1047.62 1670.59 819.014 1887.97 590.431C1870.08 962.242 1895.8 1334.54 1963.78 1700.94C1970.32 1736.17 2025.03 1721.24 2018.52 1686.13C1946.86 1299.98 1923.88 907.066 1948.92 515.373C1950.47 491.312 1916.78 478.541 1900.48 495.67C1678.56 729.045 1456.63 962.409 1234.69 1195.78C1204.02 972.873 1226.62 747.21 1222.15 522.795C1289.95 503.003 1358.34 485.127 1427.18 469.113C1462.7 460.844 1447.67 407.105 1412.1 415.374C1347.72 430.352 1283.79 446.958 1220.36 465.223C1217.42 397.421 1211.38 329.763 1200.02 262.362C1197.89 249.791 1184.34 241.856 1171.49 241.856C1164.23 241.856 1157.19 244.397 1152.58 250.069ZM1156.44 357.557C1161.01 398.769 1163.92 440.07 1165.68 481.416C1155.78 484.436 1145.91 487.49 1136.04 490.588C1138.21 445.42 1142.58 399.182 1156.44 357.557ZM1167.44 539.233C1172.09 780.866 1145.58 1024.03 1188.37 1263.91C1188.82 1266.5 1189.7 1268.85 1190.89 1270.95C1169.08 1256.7 1147.2 1242.59 1125.25 1228.56C1121.08 1112.94 1119.82 997.213 1121.48 881.534C1122.92 779.942 1126.61 678.382 1132.55 576.946C1133.07 568.097 1133.47 559.026 1133.82 549.787C1145 546.21 1156.22 542.688 1167.44 539.233ZM795.436 1018.62C752.053 990.025 709.033 960.882 666.695 930.792C629.997 904.703 552.868 866.946 550.564 822.324C548.884 789.503 572.88 783.653 599.951 769.7C624.424 757.073 649.158 744.903 673.971 732.945C720.521 710.523 767.559 689.081 815.039 668.665C900.534 631.899 987.527 598.678 1075.71 568.877C1072.64 622.315 1070.51 675.819 1068.57 729.19C1062.98 883.295 1062.52 1037.59 1067.24 1191.73C976.426 1134.34 885.108 1077.72 795.436 1018.62ZM1274.07 2157.93C1213.89 2155.25 1210.71 2090.38 1203.55 2045.53C1174.18 1861.64 1153.41 1676.3 1139.66 1490.66C1134.88 1426.12 1131 1361.51 1128.04 1296.86C1262.42 1383.58 1394.63 1474.41 1514.82 1579.6C1571 1628.76 1630.55 1683.24 1658.07 1753.83C1692.72 1842.73 1653.17 1930.89 1590.8 1996.89C1535.23 2055.7 1462.49 2100.9 1386.53 2129.81C1354.5 2142 1314.49 2158.04 1279.04 2158.04C1277.37 2158.04 1275.71 2157.99 1274.07 2157.93Z" fill="url(#paint0_linear_31_61)"/>
<defs>
<linearGradient id="paint0_linear_31_61" x1="501.773" y1="1227.42" x2="1996.73" y2="1227.42" gradientUnits="userSpaceOnUse">
<stop stop-color="#045A6E"/>
<stop offset="0.16" stop-color="#045A6E"/>
<stop offset="0.455" stop-color="#6062AA"/>
<stop offset="0.9999" stop-color="#C13639"/>
<stop offset="1" stop-color="#DB2B90"/>
</linearGradient>
</defs>
</svg>
